<svg width="107" height="16" viewBox="0 0 107 16" fill="none" xmlns="http://www.w3.org/2000/svg">
<path d="M2.318 6.122L1.254 5.989L1.805 3.747C2.28633 3.481 2.84367 3.27833 3.477 3.139C4.11033 2.987 4.70567 2.911 5.263 2.911C6.39033 2.911 7.182 3.196 7.638 3.766C8.10667 4.32333 8.341 4.93133 8.341 5.59C8.341 6.51467 7.98633 7.36967 7.277 8.155C6.56767 8.92767 5.73167 9.618 4.769 10.226C3.819 10.834 2.97667 11.3533 2.242 11.784H7.049L7.391 10.207L8.493 10.302L8.037 13H0.475L0.456 11.917C2.432 10.6377 3.99 9.54833 5.13 8.649C6.28267 7.74967 6.859 6.79967 6.859 5.799C6.859 4.67167 6.175 4.108 4.807 4.108C4.55367 4.108 4.237 4.146 3.857 4.222C3.477 4.298 3.12233 4.40567 2.793 4.545L2.318 6.122ZM17.9528 11.499C17.9528 12.753 17.5728 13.76 16.8128 14.52C16.0528 15.28 14.9951 15.66 13.6398 15.66C12.5124 15.66 11.6574 15.4003 11.0748 14.881C10.5048 14.3743 10.1881 13.7473 10.1248 13L11.2268 12.62C11.3408 13.1773 11.5878 13.627 11.9678 13.969C12.3478 14.311 12.9051 14.482 13.6398 14.482C14.5898 14.482 15.2991 14.216 15.7678 13.684C16.2491 13.152 16.4898 12.4743 16.4898 11.651C16.4898 10.5743 16.1414 9.87767 15.4448 9.561C14.7608 9.24433 13.9248 9.086 12.9368 9.086C12.4174 9.086 11.8918 9.105 11.3598 9.143L10.9418 8.687L11.5498 3.101H18.2758L18.1808 5.723L17.0218 5.837L16.9648 4.298H12.6898L12.2908 7.927C12.4428 7.91433 12.6011 7.908 12.7658 7.908C12.9304 7.908 13.0824 7.908 13.2218 7.908C14.4884 7.908 15.5904 8.14233 16.5278 8.611C17.4778 9.067 17.9528 10.0297 17.9528 11.499ZM33.5832 12.05C33.0766 12.43 32.4559 12.715 31.7212 12.905C30.9992 13.095 30.2899 13.19 29.5932 13.19C27.8326 13.19 26.4836 12.6643 25.5462 11.613C24.6216 10.549 24.1592 9.181 24.1592 7.509C24.1592 6.22967 24.4252 5.058 24.9572 3.994C25.4892 2.91733 26.2429 2.06233 27.2182 1.429C28.2062 0.783 29.3779 0.46 30.7332 0.46C31.6326 0.46 32.4179 0.599333 33.0892 0.878C33.7606 1.15667 34.3052 1.49867 34.7232 1.904L34.7992 4.279L33.6212 4.393L33.4692 2.588C33.1146 2.322 32.7029 2.113 32.2342 1.961C31.7782 1.79633 31.2526 1.714 30.6572 1.714C29.1626 1.714 27.9402 2.227 26.9902 3.253C26.0402 4.26633 25.5652 5.647 25.5652 7.395C25.5652 10.4223 26.9966 11.936 29.8592 11.936C30.8852 11.936 31.7529 11.7523 32.4622 11.385L32.9942 9.561L34.1342 9.675L33.5832 12.05ZM35.88 9.409C35.88 8.079 36.2473 6.90733 36.982 5.894C37.7167 4.88067 38.7997 4.374 40.231 4.374C41.447 4.374 42.3083 4.74767 42.815 5.495C43.3343 6.24233 43.594 7.148 43.594 8.212C43.594 9.618 43.2077 10.8023 42.435 11.765C41.675 12.715 40.611 13.19 39.243 13.19C38.0903 13.19 37.2417 12.8417 36.697 12.145C36.1523 11.4483 35.88 10.5363 35.88 9.409ZM37.286 9.333C37.286 10.1563 37.4317 10.8277 37.723 11.347C38.027 11.8537 38.578 12.107 39.376 12.107C40.364 12.107 41.0797 11.727 41.523 10.967C41.979 10.1943 42.207 9.28867 42.207 8.25C42.207 7.42667 42.055 6.75533 41.751 6.236C41.447 5.71667 40.8897 5.457 40.079 5.457C39.1543 5.457 38.4577 5.818 37.989 6.54C37.5203 7.262 37.286 8.193 37.286 9.333ZM45.4649 4.545H47.6309L47.5739 6.217C47.8653 5.65967 48.2389 5.21633 48.6949 4.887C49.1509 4.545 49.7146 4.374 50.3859 4.374C51.7413 4.374 52.5139 5.02633 52.7039 6.331C52.9826 5.73567 53.3499 5.26067 53.8059 4.906C54.2746 4.55133 54.8573 4.374 55.5539 4.374C56.3519 4.374 56.9726 4.64 57.4159 5.172C57.8719 5.69133 58.0366 6.49567 57.9099 7.585L57.3779 11.917H58.8029L58.7079 12.677L58.2899 13H55.9719L56.5799 7.984C56.6813 7.072 56.5926 6.426 56.3139 6.046C56.0353 5.65333 55.5983 5.457 55.0029 5.457C54.3189 5.457 53.7933 5.67867 53.4259 6.122C53.0713 6.55267 52.8243 7.05933 52.6849 7.642L52.0389 13H50.7659L51.3739 7.984C51.4753 7.05933 51.3866 6.407 51.1079 6.027C50.8293 5.647 50.4049 5.457 49.8349 5.457C49.0623 5.457 48.4859 5.723 48.1059 6.255C47.7386 6.77433 47.5106 7.36967 47.4219 8.041L47.4029 8.022L46.8139 13H45.5409L46.4339 5.628H44.9519L45.0469 4.906L45.4649 4.545ZM60.42 4.545H62.586L62.529 6.217C62.8203 5.65967 63.194 5.21633 63.65 4.887C64.106 4.545 64.6697 4.374 65.341 4.374C66.6963 4.374 67.469 5.02633 67.659 6.331C67.9377 5.73567 68.305 5.26067 68.761 4.906C69.2297 4.55133 69.8123 4.374 70.509 4.374C71.307 4.374 71.9277 4.64 72.371 5.172C72.827 5.69133 72.9917 6.49567 72.865 7.585L72.333 11.917H73.758L73.663 12.677L73.245 13H70.927L71.535 7.984C71.6363 7.072 71.5477 6.426 71.269 6.046C70.9903 5.65333 70.5533 5.457 69.958 5.457C69.274 5.457 68.7483 5.67867 68.381 6.122C68.0263 6.55267 67.7793 7.05933 67.64 7.642L66.994 13H65.721L66.329 7.984C66.4303 7.05933 66.3417 6.407 66.063 6.027C65.7843 5.647 65.36 5.457 64.79 5.457C64.0173 5.457 63.441 5.723 63.061 6.255C62.6937 6.77433 62.4657 7.36967 62.377 8.041L62.358 8.022L61.769 13H60.496L61.389 5.628H59.907L60.002 4.906L60.42 4.545ZM78.3771 12.107C78.9597 12.107 79.4347 11.955 79.8021 11.651C80.1821 11.3343 80.4734 10.9163 80.6761 10.397L81.7211 10.644C81.5437 11.3533 81.1511 11.955 80.5431 12.449C79.9351 12.943 79.1434 13.19 78.1681 13.19C77.1421 13.19 76.3441 12.8797 75.7741 12.259C75.2041 11.6257 74.9191 10.7137 74.9191 9.523C74.9191 8.079 75.3054 6.863 76.0781 5.875C76.8634 4.87433 77.9021 4.374 79.1941 4.374C79.9414 4.374 80.5811 4.564 81.1131 4.944C81.6451 5.31133 81.9111 5.82433 81.9111 6.483C81.9111 7.10367 81.6767 7.63567 81.2081 8.079C80.7521 8.52233 79.9794 8.858 78.8901 9.086C78.4974 9.162 78.0794 9.24433 77.6361 9.333C77.2054 9.409 76.7621 9.47867 76.3061 9.542C76.3187 10.34 76.4771 10.967 76.7811 11.423C77.0977 11.879 77.6297 12.107 78.3771 12.107ZM78.3391 8.288C79.3017 8.07267 79.9034 7.813 80.1441 7.509C80.3974 7.205 80.5241 6.901 80.5241 6.597C80.5241 6.16633 80.3911 5.86233 80.1251 5.685C79.8591 5.50767 79.5044 5.419 79.0611 5.419C78.1744 5.419 77.5221 5.74833 77.1041 6.407C76.6987 7.06567 76.4454 7.794 76.3441 8.592C77.2054 8.478 77.8704 8.37667 78.3391 8.288ZM83.669 4.545H85.835L85.816 6.179C86.12 5.63433 86.5064 5.19733 86.975 4.868C87.4437 4.53867 88.0074 4.374 88.666 4.374C89.4767 4.374 90.1164 4.62733 90.585 5.134C91.0537 5.64067 91.2247 6.45767 91.098 7.585L90.566 11.917H91.991L91.896 12.677L91.497 13H89.16L89.768 7.984C89.8694 7.072 89.7744 6.426 89.483 6.046C89.1917 5.65333 88.742 5.457 88.134 5.457C87.45 5.457 86.8927 5.69767 86.462 6.179C86.044 6.64767 85.778 7.186 85.664 7.794L85.018 13H83.745L84.638 5.628H83.156L83.251 4.906L83.669 4.545ZM93.1013 4.925L93.5383 4.545H94.5833L94.8493 2.265L95.3053 1.828H96.1983L95.8563 4.545H98.7443L98.6493 5.229L98.2123 5.628H95.7233L95.1533 10.397C95.0267 11.537 95.375 12.107 96.1983 12.107C96.477 12.107 96.7303 12.0183 96.9583 11.841C97.199 11.651 97.4207 11.2013 97.6233 10.492L98.5733 10.815C98.358 11.6383 98.054 12.24 97.6613 12.62C97.2813 13 96.743 13.19 96.0463 13.19C95.261 13.19 94.672 12.9493 94.2793 12.468C93.8993 11.9867 93.76 11.3343 93.8613 10.511L94.4503 5.628H93.0063L93.1013 4.925ZM102.521 12.107C103.889 12.107 104.573 11.6193 104.573 10.644C104.573 10.1247 104.364 9.77633 103.946 9.599C103.541 9.409 103.009 9.22533 102.35 9.048C101.793 8.90867 101.28 8.69967 100.811 8.421C100.355 8.14233 100.127 7.63567 100.127 6.901C100.127 6.065 100.431 5.438 101.039 5.02C101.647 4.58933 102.35 4.374 103.148 4.374C103.718 4.374 104.263 4.45 104.782 4.602C105.301 4.754 105.732 4.93767 106.074 5.153L106.036 7.129L104.991 7.262L104.915 5.913C104.674 5.78633 104.421 5.67867 104.155 5.59C103.902 5.50133 103.604 5.457 103.262 5.457C102.071 5.457 101.476 5.894 101.476 6.768C101.476 7.148 101.622 7.42667 101.913 7.604C102.204 7.78133 102.66 7.95233 103.281 8.117C103.864 8.269 104.446 8.49067 105.029 8.782C105.624 9.07333 105.922 9.656 105.922 10.53C105.922 11.3533 105.624 12.0057 105.029 12.487C104.434 12.9557 103.661 13.19 102.711 13.19C102.128 13.19 101.52 13.114 100.887 12.962C100.266 12.7973 99.7914 12.5947 99.462 12.354L99.918 10.435L100.963 10.549L100.773 11.727C101.267 11.9803 101.85 12.107 102.521 12.107Z" fill="white"/>
</svg>
